HIERARCHY
ROOT joint_Root
{
	OFFSET 0.0 0.0 0.0
	CHANNELS 6 Xposition Yposition Zposition Zrotation Xrotation Yrotation 
	JOINT Hips
	{
		OFFSET 4.5925 91.4895 -427.239
		CHANNELS 6 Xposition Yposition Zposition Zrotation Xrotation Yrotation 
		JOINT Spine
		{
			OFFSET 15.7357 0.0 0.0
			CHANNELS 6 Xposition Yposition Zposition Zrotation Xrotation Yrotation 
			JOINT Chest
			{
				OFFSET 8.98455 -0.406207 0.0
				CHANNELS 6 Xposition Yposition Zposition Zrotation Xrotation Yrotation 
				JOINT Neck
				{
					OFFSET 16.3773 0.0 0.0
					CHANNELS 6 Xposition Yposition Zposition Zrotation Xrotation Yrotation 
					JOINT Head
					{
						OFFSET 6.45672 0.0 0.0
						CHANNELS 6 Xposition Yposition Zposition Zrotation Xrotation Yrotation 
						End Site
						{
							OFFSET 0.0 0.0 0.0
						}
					}
				}
				JOINT Shoulder_L
				{
					OFFSET 12.9942 -0.242716 4.98039
					CHANNELS 6 Xposition Yposition Zposition Zrotation Xrotation Yrotation 
					JOINT UpperArm_L
					{
						OFFSET 5.34809 0.0 0.0
						CHANNELS 6 Xposition Yposition Zposition Zrotation Xrotation Yrotation 
						JOINT LowerArm_L
						{
							OFFSET 24.3286 1.87007e-05 0.0
							CHANNELS 6 Xposition Yposition Zposition Zrotation Xrotation Yrotation 
							JOINT Hand_L
							{
								OFFSET 22.2916 0.0 0.0
								CHANNELS 6 Xposition Yposition Zposition Zrotation Xrotation Yrotation 
								End Site
								{
									OFFSET 0.0 0.0 0.0
								}
							}
						}
					}
				}
				JOINT Shoulder_R
				{
					OFFSET 12.9945 -0.242716 -4.98039
					CHANNELS 6 Xposition Yposition Zposition Zrotation Xrotation Yrotation 
					JOINT UpperArm_R
					{
						OFFSET -5.34813 0.0 0.0
						CHANNELS 6 Xposition Yposition Zposition Zrotation Xrotation Yrotation 
						JOINT LowerArm_R
						{
							OFFSET -24.3289 0.000322201 0.0
							CHANNELS 6 Xposition Yposition Zposition Zrotation Xrotation Yrotation 
							JOINT Hand_R
							{
								OFFSET -22.2915 -0.000108084 0.0
								CHANNELS 6 Xposition Yposition Zposition Zrotation Xrotation Yrotation 
								End Site
								{
									OFFSET 0.0 0.0 0.0
								}
							}
						}
					}
				}
			}
		}
		JOINT UpperLeg_L
		{
			OFFSET -2.19248 -6.46944 0.0
			CHANNELS 6 Xposition Yposition Zposition Zrotation Xrotation Yrotation 
			JOINT LowerLeg_L
			{
				OFFSET 39.0811 0.0 -1.23785e-05
				CHANNELS 6 Xposition Yposition Zposition Zrotation Xrotation Yrotation 
				JOINT Foot_L
				{
					OFFSET 40.9854 0.0 -1.26872e-05
					CHANNELS 6 Xposition Yposition Zposition Zrotation Xrotation Yrotation 
					JOINT Toes_L
					{
						OFFSET 11.7543 0.0 0.0
						CHANNELS 6 Xposition Yposition Zposition Zrotation Xrotation Yrotation 
						End Site
						{
							OFFSET 0.0 0.0 0.0
						}
					}
				}
			}
		}
		JOINT UpperLeg_R
		{
			OFFSET -2.19251 6.46944 0.0
			CHANNELS 6 Xposition Yposition Zposition Zrotation Xrotation Yrotation 
			JOINT LowerLeg_R
			{
				OFFSET -39.0811 -0.00228153 -0.0401928
				CHANNELS 6 Xposition Yposition Zposition Zrotation Xrotation Yrotation 
				JOINT Foot_R
				{
					OFFSET -40.9854 0.0 0.0
					CHANNELS 6 Xposition Yposition Zposition Zrotation Xrotation Yrotation 
					JOINT Toes_R
					{
						OFFSET -11.7543 0.0 0.0
						CHANNELS 6 Xposition Yposition Zposition Zrotation Xrotation Yrotation 
						End Site
						{
							OFFSET 0.0 0.0 0.0
						}
					}
				}
			}
		}
	}
}
MOTION
Frames:	9
Frame Time:	0.0333333
0.000000 0.000000 0.000000 0.000000 0.000000 -0.000000 0.100978 90.482200 -8.610720 88.958200 -1.765200 9.512370 15.735700 0.000005 -0.000001 89.636900 77.684900 -90.028200 8.984550 -0.406207 -0.000000 16.863100 -0.184501 -0.756363 16.377300 -0.000001 -0.000001 7.445860 -5.129520 3.577020 6.456720 -0.000001 -0.000000 -13.097900 -4.664310 0.389098 12.994200 -0.242716 4.980390 -89.561300 -1.473320 -73.415800 5.348090 -0.000007 -0.000001 -72.291800 -26.923500 -67.596900 24.328600 0.000019 0.000005 44.684400 -3.217750 -93.248200 22.291600 -0.000001 0.000005 41.760400 4.814180 11.048400 12.994500 -0.242716 -4.980390 89.840500 0.860409 -79.494800 -5.348130 -0.000001 -0.000004 -65.957300 -30.959600 -66.720800 -24.328900 0.000322 -0.000009 20.960300 -1.321870 -93.446900 -22.291500 -0.000108 -0.000004 48.053600 5.330580 -0.803320 -2.192480 -6.469440 -0.000000 -175.921000 -11.194800 -8.840000 39.081100 -0.000007 -0.000012 -0.142494 0.208316 34.373600 40.985400 -0.000006 -0.000013 1.090030 4.545040 -66.113100 11.754300 -0.000000 0.000003 -0.000081 -0.000862 -16.610800 -2.192510 6.469440 -0.000001 176.719000 20.209700 172.783000 -39.081100 -0.002282 -0.040193 -0.147164 0.229377 33.262800 -40.985400 0.000008 0.000006 3.483310 11.311500 -66.514200 -11.754300 -0.000006 -0.000006 -0.004299 -0.054516 -18.790800
0.000000 0.000000 0.000000 0.000000 0.000000 -0.000000 0.088207 90.475200 -8.587060 88.980900 -1.765020 9.528180 15.735700 0.000005 -0.000001 89.631600 77.645300 -90.016300 8.984550 -0.406207 -0.000000 16.942400 -0.186944 -0.742683 16.377300 -0.000001 -0.000001 7.580090 -5.164990 3.577110 6.456720 -0.000001 -0.000000 -13.081300 -4.656630 0.403646 12.994200 -0.242716 4.980390 -89.597500 -1.336320 -73.234600 5.348090 -0.000007 -0.000001 -75.085600 -28.926200 -67.458600 24.328600 0.000019 0.000005 41.955500 -2.716530 -93.017700 22.291600 -0.000001 0.000005 42.202800 4.773910 11.805800 12.994500 -0.242716 -4.980390 89.823400 0.944255 -79.404100 -5.348130 -0.000001 -0.000004 -68.923400 -32.571800 -66.793800 -24.328900 0.000322 -0.000009 20.504100 -1.097270 -92.932100 -22.291500 -0.000108 -0.000004 48.322600 5.300280 0.063817 -2.192480 -6.469440 -0.000000 -175.941000 -11.191000 -8.823290 39.081100 -0.000007 -0.000012 -0.142248 0.207777 34.396600 40.985400 -0.000006 -0.000013 1.077010 4.492670 -66.135700 11.754300 -0.000000 0.000003 -0.000073 -0.000789 -16.608000 -2.192510 6.469440 -0.000001 176.702000 20.151800 172.791000 -39.081100 -0.002282 -0.040193 -0.150537 0.234095 33.310400 -40.985400 0.000008 0.000006 3.463480 11.234700 -66.552000 -11.754300 -0.000006 -0.000006 -0.004206 -0.053567 -18.752200
0.000000 0.000000 0.000000 0.000000 0.000000 -0.000000 0.069040 90.474500 -8.575590 89.009600 -1.736700 9.512680 15.735700 0.000005 -0.000001 89.650900 77.626900 -90.025600 8.984550 -0.406207 -0.000000 16.979300 -0.178288 -0.723813 16.377300 -0.000001 -0.000001 7.735940 -5.180280 3.564120 6.456720 -0.000001 -0.000000 -13.031100 -4.769950 0.437426 12.994200 -0.242716 4.980390 -89.620000 -1.252680 -73.124700 5.348090 -0.000007 -0.000001 -77.446900 -30.619800 -67.368300 24.328600 0.000019 0.000005 39.008300 -2.272090 -92.802000 22.291600 -0.000001 0.000005 42.446300 4.746600 12.310800 12.994500 -0.242716 -4.980390 89.799800 1.060160 -79.307600 -5.348130 -0.000001 -0.000004 -71.566300 -33.938400 -67.025100 -24.328900 0.000322 -0.000009 19.935400 -0.931267 -92.566500 -22.291500 -0.000108 -0.000004 48.722500 5.268650 0.934314 -2.192480 -6.469440 -0.000000 -175.952000 -11.184800 -8.819940 39.081100 -0.000007 -0.000012 -0.146997 0.214818 34.383600 40.985400 -0.000006 -0.000013 1.067310 4.528900 -66.140500 11.754300 -0.000000 0.000003 -0.000059 -0.000650 -16.602700 -2.192510 6.469440 -0.000001 176.698000 20.135400 172.766000 -39.081100 -0.002282 -0.040193 -0.147901 0.229845 33.337700 -40.985400 0.000008 0.000006 3.496360 11.186900 -66.581600 -11.754300 -0.000006 -0.000006 -0.004195 -0.053451 -18.747500
0.000000 0.000000 0.000000 0.000000 0.000000 -0.000000 0.051905 90.469200 -8.566570 89.012900 -1.762700 9.503980 15.735700 0.000005 -0.000001 89.739900 77.613200 -90.095600 8.984550 -0.406207 -0.000000 17.007100 -0.139191 -0.691805 16.377300 -0.000001 -0.000001 7.817870 -5.206590 3.569950 6.456720 -0.000001 -0.000000 -13.014200 -4.872270 0.389467 12.994200 -0.242716 4.980390 -89.657800 -1.119010 -72.994500 5.348090 -0.000007 -0.000001 -79.089200 -31.877100 -67.280900 24.328600 0.000019 0.000005 36.763000 -1.889870 -92.527500 22.291600 -0.000001 0.000005 42.706300 4.724770 12.709700 12.994500 -0.242716 -4.980390 89.781300 1.149220 -79.224700 -5.348130 -0.000001 -0.000004 -73.818900 -34.939500 -67.381600 -24.328900 0.000322 -0.000009 19.572600 -0.832858 -92.341800 -22.291500 -0.000108 -0.000004 49.091700 5.245650 1.547080 -2.192480 -6.469440 -0.000000 -175.942000 -11.180600 -8.831550 39.081100 -0.000007 -0.000012 -0.145230 0.212056 34.406300 40.985400 -0.000006 -0.000013 1.048680 4.518620 -66.156800 11.754300 -0.000000 0.000003 -0.000071 -0.000768 -16.607200 -2.192510 6.469440 -0.000001 176.721000 20.064700 172.748000 -39.081100 -0.002282 -0.040193 -0.148178 0.230098 33.357000 -40.985400 0.000008 0.000006 3.433100 11.134300 -66.584400 -11.754300 -0.000006 -0.000006 -0.004247 -0.053983 -18.769100
0.000000 0.000000 0.000000 0.000000 0.000000 -0.000000 0.022786 90.462600 -8.559440 89.010800 -1.768440 9.519410 15.735700 0.000005 -0.000001 89.863700 77.592400 -90.197100 8.984550 -0.406207 -0.000000 17.048900 -0.084982 -0.655153 16.377300 -0.000001 -0.000001 7.883030 -5.270300 3.588070 6.456720 -0.000001 -0.000000 -13.015300 -5.026140 0.354233 12.994200 -0.242716 4.980390 -89.678300 -1.048770 -72.946600 5.348090 -0.000007 -0.000001 -79.778300 -32.581600 -67.101600 24.328600 0.000019 0.000005 32.282400 -1.541370 -92.438000 22.291600 -0.000001 0.000005 43.464300 4.690910 13.319800 12.994500 -0.242716 -4.980390 89.773000 1.187240 -79.176700 -5.348130 -0.000001 -0.000004 -75.611800 -35.626600 -67.825400 -24.328900 0.000322 -0.000009 19.590300 -0.823538 -92.313400 -22.291500 -0.000108 -0.000004 49.428400 5.227040 2.031540 -2.192480 -6.469440 -0.000000 -175.915000 -11.167900 -8.826820 39.081100 -0.000007 -0.000012 -0.144689 0.211029 34.436300 40.985400 -0.000006 -0.000013 1.027640 4.523250 -66.171900 11.754300 -0.000000 0.000003 -0.000069 -0.000745 -16.606300 -2.192510 6.469440 -0.000001 176.740000 19.986300 172.755000 -39.081100 -0.002282 -0.040193 -0.149273 0.231479 33.388800 -40.985400 0.000008 0.000006 3.431690 11.103800 -66.611500 -11.754300 -0.000006 -0.000006 -0.004248 -0.053997 -18.769700
0.000000 0.000000 0.000000 0.000000 0.000000 -0.000000 -0.000438 90.449600 -8.555850 88.999100 -1.726720 9.560890 15.735700 0.000005 -0.000001 89.889200 77.577100 -90.198600 8.984550 -0.406207 -0.000000 17.079500 -0.072292 -0.608874 16.377300 -0.000001 -0.000001 7.883870 -5.333030 3.631150 6.456720 -0.000001 -0.000000 -12.988400 -5.133420 0.281520 12.994200 -0.242716 4.980390 -89.704400 -0.960924 -72.900100 5.348090 -0.000007 -0.000001 -79.434200 -32.690700 -66.817200 24.328600 0.000019 0.000005 25.458700 -1.243720 -92.610400 22.291600 -0.000001 0.000005 43.612600 4.673030 13.639200 12.994500 -0.242716 -4.980390 89.775500 1.169510 -79.134200 -5.348130 -0.000001 -0.000004 -76.712600 -35.764800 -68.232300 -24.328900 0.000322 -0.000009 19.973500 -0.890035 -92.448000 -22.291500 -0.000108 -0.000004 49.811800 5.221570 2.172190 -2.192480 -6.469440 -0.000000 -175.886000 -11.178600 -8.818960 39.081100 -0.000007 -0.000012 -0.143971 0.209458 34.502900 40.985400 -0.000006 -0.000013 1.027880 4.541710 -66.203200 11.754300 -0.000000 0.000003 -0.000070 -0.000761 -16.607000 -2.192510 6.469440 -0.000001 176.748000 20.016800 172.774000 -39.081100 -0.002282 -0.040193 -0.151264 0.233976 33.447700 -40.985400 0.000008 0.000006 3.449720 11.069500 -66.648800 -11.754300 -0.000006 -0.000006 -0.004252 -0.054033 -18.771200
0.000000 0.000000 0.000000 0.000000 0.000000 -0.000000 -0.038887 90.438800 -8.549140 88.990700 -1.651380 9.636470 15.735700 0.000005 -0.000001 89.775200 77.566900 -90.080000 8.984550 -0.406207 -0.000000 17.099800 -0.120677 -0.592439 16.377300 -0.000001 -0.000001 7.861310 -5.373730 3.650720 6.456720 -0.000001 -0.000000 -12.861400 -5.125570 0.331225 12.994200 -0.242716 4.980390 -89.693800 -0.998920 -72.954200 5.348090 -0.000007 -0.000001 -78.861300 -32.336300 -66.799800 24.328600 0.000019 0.000005 24.013600 -1.203000 -92.698100 22.291600 -0.000001 0.000005 42.761200 4.643660 14.157400 12.994500 -0.242716 -4.980390 89.783300 1.130190 -79.146500 -5.348130 -0.000001 -0.000004 -76.707900 -35.293400 -68.398700 -24.328900 0.000322 -0.000009 19.993100 -0.992135 -92.725400 -22.291500 -0.000108 -0.000004 50.021900 5.226710 2.040160 -2.192480 -6.469440 -0.000000 -175.829000 -11.105700 -8.764250 39.081100 -0.000007 -0.000012 -0.151538 0.220069 34.551400 40.985400 -0.000006 -0.000013 1.003650 4.600040 -66.227700 11.754300 -0.000000 0.000003 -0.000070 -0.000760 -16.606900 -2.192510 6.469440 -0.000001 176.749000 20.020700 172.851000 -39.081100 -0.002282 -0.040193 -0.151304 0.233587 33.498500 -40.985400 0.000008 0.000006 3.463060 10.992700 -66.699600 -11.754300 -0.000006 -0.000006 -0.004197 -0.053476 -18.748400
0.000000 0.000000 0.000000 0.000000 0.000000 -0.000000 -0.069094 90.428800 -8.553330 88.993500 -1.605950 9.732580 15.735700 0.000005 -0.000001 89.647100 77.557900 -89.949200 8.984550 -0.406207 -0.000000 17.117300 -0.175252 -0.578733 16.377300 -0.000001 -0.000001 7.782660 -5.383910 3.657840 6.456720 -0.000001 -0.000000 -12.689000 -4.986710 0.287777 12.994200 -0.242716 4.980390 -89.681400 -1.047600 -73.081000 5.348090 -0.000007 -0.000001 -77.717900 -31.457400 -66.913000 24.328600 0.000019 0.000005 26.205100 -1.357730 -92.756200 22.291600 -0.000001 0.000005 42.174700 4.630610 14.384900 12.994500 -0.242716 -4.980390 89.804500 1.025490 -79.205300 -5.348130 -0.000001 -0.000004 -75.513100 -34.250800 -68.333800 -24.328900 0.000322 -0.000009 19.991100 -1.144930 -93.144500 -22.291500 -0.000108 -0.000004 49.777700 5.233180 1.873050 -2.192480 -6.469440 -0.000000 -175.808000 -11.079200 -8.707830 39.081100 -0.000007 -0.000012 -0.146844 0.212934 34.591200 40.985400 -0.000006 -0.000013 0.990860 4.591930 -66.226300 11.754300 -0.000000 0.000003 -0.000071 -0.000769 -16.607300 -2.192510 6.469440 -0.000001 176.754000 20.013500 172.915000 -39.081100 -0.002282 -0.040193 -0.147380 0.227098 33.563400 -40.985400 0.000008 0.000006 3.559970 10.898000 -66.752600 -11.754300 -0.000006 -0.000006 -0.004227 -0.053779 -18.760800
0.000000 0.000000 0.000000 0.000000 0.000000 -0.000000 -0.108990 90.421700 -8.566590 89.004700 -1.608360 9.803700 15.735700 0.000005 -0.000001 89.532000 77.557600 -89.846700 8.984550 -0.406207 -0.000000 17.117400 -0.225464 -0.596558 16.377300 -0.000001 -0.000001 7.657620 -5.367130 3.610120 6.456720 -0.000001 -0.000000 -12.511600 -4.850160 0.335356 12.994200 -0.242716 4.980390 -89.660700 -1.124810 -73.213800 5.348090 -0.000007 -0.000001 -76.129200 -30.185600 -67.262400 24.328600 0.000019 0.000005 28.483200 -1.605010 -92.955000 22.291600 -0.000001 0.000005 41.712000 4.647150 14.095800 12.994500 -0.242716 -4.980390 89.823300 0.929879 -79.242700 -5.348130 -0.000001 -0.000004 -73.288100 -32.694400 -68.191000 -24.328900 0.000322 -0.000009 20.640000 -1.328610 -93.523000 -22.291500 -0.000108 -0.000004 49.228100 5.239990 1.695820 -2.192480 -6.469440 -0.000000 -175.767000 -11.072300 -8.639980 39.081100 -0.000007 -0.000012 -0.151006 0.218800 34.612100 40.985400 -0.000006 -0.000013 0.964213 4.626470 -66.236900 11.754300 -0.000000 0.000003 -0.000066 -0.000724 -16.605500 -2.192510 6.469440 -0.000001 176.741000 19.991600 172.967000 -39.081100 -0.002282 -0.040193 -0.149135 0.229395 33.603500 -40.985400 0.000008 0.000006 3.581930 10.903800 -66.777800 -11.754300 -0.000006 -0.000006 -0.004243 -0.053944 -18.767500
